<svg width="47" height="45" viewBox="0 0 47 45" fill="none" xmlns="http://www.w3.org/2000/svg">
<path d="M45.0269 29.9948C45.0141 29.9877 45.0031 29.9778 44.9946 29.9658C44.9862 29.9538 44.9806 29.9401 44.9782 29.9257C44.7737 28.7073 44.1289 27.606 43.1658 26.8303C43.1542 26.8209 43.1447 26.809 43.1382 26.7955C43.1317 26.782 43.1283 26.7673 43.1283 26.7523V19.5394C43.1305 17.0446 42.5871 14.5793 41.536 12.3158C41.3408 11.8936 41.1294 11.4789 40.9017 11.0716C40.8949 11.0597 40.8906 11.0465 40.8891 11.0329C40.8876 11.0192 40.889 11.0054 40.893 10.9923C40.8971 10.9792 40.9038 10.9671 40.9128 10.9567C40.9217 10.9463 40.9327 10.9378 40.9451 10.9318L41.0612 10.8743C41.7444 10.3272 41.2564 9.62379 41.2564 9.62379L41.2608 9.62769C40.3281 8.16652 39.2069 6.83424 37.926 5.66513C35.9685 3.87576 33.6926 2.46828 31.2159 1.51551C25.9517 -0.505169 20.1239 -0.505169 14.8597 1.51551C12.3829 2.46818 10.1067 3.87566 8.1491 5.66513C6.88928 6.81438 5.78335 8.12118 4.85872 9.55315H4.86165C4.40051 10.2181 4.78211 10.7759 4.89434 10.8149L5.12954 10.9308C5.1419 10.9368 5.15289 10.9453 5.16184 10.9557C5.17079 10.9661 5.17751 10.9783 5.18158 10.9914C5.18565 11.0045 5.18699 11.0183 5.1855 11.0319C5.18402 11.0455 5.17976 11.0587 5.17297 11.0707C4.94525 11.4769 4.7338 11.8917 4.53861 12.3149C3.48752 14.5787 2.94397 17.0442 2.94588 19.5394V26.7523C2.9458 26.7673 2.94238 26.782 2.93589 26.7955C2.92939 26.809 2.91996 26.8209 2.9083 26.8303C1.94525 27.606 1.30046 28.7073 1.09598 29.9257C1.09335 29.94 1.08763 29.9537 1.0792 29.9656C1.07078 29.9776 1.05985 29.9875 1.04718 29.9948C0.209339 30.5112 0 31.4373 0 32.4935V37.2823C0 38.3394 0.209339 39.265 1.04962 39.7824C1.06184 39.7899 1.07229 39.8 1.08028 39.812C1.08828 39.8239 1.09363 39.8374 1.09598 39.8515C1.29415 41.0312 1.90475 42.1026 2.81931 42.8753C3.73387 43.6481 4.89319 44.0722 6.09133 44.0723H6.5388H6.54856C6.65687 44.0726 6.76412 44.0508 6.86377 44.0085C6.96342 43.9661 7.05341 43.9039 7.12827 43.8258C7.28396 43.6709 7.37171 43.4606 7.37225 43.2412H7.37713L7.38347 26.5316C7.38351 26.3145 7.29812 26.106 7.1457 25.9511C6.99329 25.7962 6.78603 25.7073 6.56856 25.7035H6.09279C5.68351 25.703 5.27568 25.752 4.87824 25.8496C4.8633 25.8534 4.84771 25.8537 4.83263 25.8506C4.81754 25.8474 4.80337 25.841 4.79116 25.8316C4.77895 25.8222 4.76903 25.8102 4.76214 25.7964C4.75525 25.7827 4.75156 25.7676 4.75136 25.7522V19.5394C4.74961 17.3049 5.23638 15.0968 6.1777 13.0695C6.36801 12.657 6.57572 12.2536 6.80084 11.8594C6.81361 11.8369 6.83453 11.8201 6.8593 11.8125C6.88407 11.8049 6.91081 11.807 6.93405 11.8184L7.12924 11.9129C7.93976 12.1736 8.2789 11.4677 8.2789 11.4677L8.2828 11.4628C8.9985 10.3908 9.84168 9.40934 10.7939 8.53986C12.394 7.07859 14.2544 5.92983 16.2787 5.15313C20.6327 3.48511 25.4511 3.48511 29.8052 5.15313C31.8293 5.93021 33.6896 7.07893 35.29 8.53986C36.2685 9.43309 37.1317 10.4446 37.8596 11.551C38.3696 12.1814 39.0264 11.8725 39.0264 11.8725L39.0122 11.8847L39.1469 11.8184C39.1702 11.807 39.197 11.8048 39.2219 11.8124C39.2467 11.82 39.2677 11.8368 39.2806 11.8594C39.5051 12.254 39.7128 12.6573 39.9038 13.0695C40.8437 15.0971 41.3292 17.3051 41.3262 19.5394V25.7551C41.326 25.7705 41.3223 25.7856 41.3154 25.7994C41.3085 25.8131 41.2986 25.8251 41.2864 25.8345C41.2742 25.8439 41.26 25.8504 41.2449 25.8535C41.2298 25.8566 41.2142 25.8563 41.1993 25.8525C40.8019 25.755 40.394 25.7059 39.9848 25.7064L39.5456 25.7132C39.4352 25.7121 39.3258 25.7331 39.2237 25.7749C39.1216 25.8168 39.029 25.8786 38.9512 25.9568C38.7892 26.1185 38.6936 26.3012 38.6936 26.5131L38.696 43.2378C38.6961 43.3465 38.7177 43.4541 38.7596 43.5544C38.8015 43.6547 38.8628 43.7458 38.94 43.8224C39.0158 43.9012 39.1067 43.964 39.2073 44.0071C39.3079 44.0501 39.4161 44.0724 39.5256 44.0728H39.9867C41.1849 44.0721 42.344 43.6475 43.2582 42.8743C44.1724 42.1011 44.7825 41.0294 44.9801 39.8496C44.9827 39.8352 44.9885 39.8216 44.9969 39.8096C45.0053 39.7977 45.0162 39.7877 45.0289 39.7804C45.8692 39.265 46.0761 38.3394 46.0761 37.2832V32.4935C46.0761 31.4363 45.8667 30.5103 45.0269 29.9939" fill="#F155BD"/>
</svg>
